#!OML:ASF I:\Actors\actors\Patient Classification 1\Patient 1\Session 1\Subject1.ASF
:FULLY-SPECIFIED
:DEGREES
1561
root 0.197855 17.6232 7.91002 22.237 -2.54784 -9.32771
lowerback 6.58221 1.96899 5.84625
upperback 1.45582 3.10153 3.88065
thorax -2.0894 1.51412 0.48088
lowerneck -15.7002 -5.7861 -5.60695
upperneck 10.1208 -7.79855 8.61413
head 6.2068 -3.34284 2.86359
rclavicle 7.15625e-015 -2.54444e-014
rhumerus 55.6248 13.2949 -48.5987
rradius 44.8584
rwrist 26.2644
rhand 20.3081 -31.9822
rfingers 7.12502
rthumb 44.822 -775.552
lclavicle 7.15625e-015 -2.54444e-014
lhumerus 71.352 -30.697 40.7391
lradius 36.1389
lwrist 3.51544
lhand -7.5801 8.40347
lfingers 7.12502
lthumb 18.3128 37.5614
rfemur -24.518 26.943 13.6919
rtibia 5.21419
rfoot -9.10069 -28.015
rtoes 3.31355
lfemur -17.5497 -60.1356 9.53142
ltibia -5.08736
lfoot -70.824 56.8674
ltoes 42.3283
1562
root 0.197123 17.6241 7.91199 22.2629 -2.57407 -9.38309
lowerback 6.60469 2.07579 6.05355
upperback 1.47666 3.25601 3.83294
thorax -2.06066 1.59031 0.305002
lowerneck -15.6984 -5.91118 -5.93522
upperneck 10.0113 -7.93081 8.89787
head 6.20761 -3.40002 2.99247
rclavicle -3.97569e-015 1.35174e-014
rhumerus 55.7349 12.3082 -49.8291
rradius 42.3581
rwrist 31.6732
rhand 15.5018 -22.576
rfingers 7.12502
rthumb 40.3237 -767.704
lclavicle -3.97569e-015 1.35174e-014
lhumerus 71.039 -30.2447 42.6167
lradius 35.6688
lwrist 4.64505
lhand -4.9795 5.31158
lfingers 7.12502
lthumb 20.8131 34.2153
rfemur -24.5721 26.9576 13.739
rtibia 5.26587
rfoot -9.11447 -27.9631
rtoes 3.3878
lfemur -17.5125 -60.1019 9.57084
ltibia -5.11636
lfoot -70.9021 56.7999
ltoes 42.3946
1563
root 0.196917 17.6244 7.91341 22.299 -2.56801 -9.38507
lowerback 6.63312 2.16099 6.24145
upperback 1.4653 3.38299 3.76283
thorax -2.06819 1.65175 0.117981
lowerneck -15.7956 -6.0403 -6.10653
upperneck 10.0814 -8.09549 9.07288
head 6.27402 -3.46864 3.05492
rclavicle 1.35174e-014 1.66979e-014
rhumerus 56.0155 12.2699 -49.862
rradius 41.7041
rwrist 31.9917
rhand 14.9864 -23.7102
rfingers 7.12502
rthumb 39.8388 -768.985
lclavicle 1.35174e-014 1.66979e-014
lhumerus 71.1434 -30.1294 43.3149
lradius 35.3831
lwrist 5.00225
lhand -5.28975 4.97752
lfingers 7.12502
lthumb 20.515 33.9136
rfemur -24.6266 27.0031 13.7052
rtibia 5.29466
rfoot -9.17551 -28.0093
rtoes 3.61864
lfemur -17.5793 -60.1037 9.6388
ltibia -5.11479
lfoot -70.9397 56.786
ltoes 42.3809
1564
root 0.195315 17.6251 7.91477 22.3551 -2.54709 -9.37267
lowerback 6.63433 2.21693 6.3567
upperback 1.44946 3.46458 3.70542
thorax -2.07132 1.69119 -0.0113033
lowerneck -15.9446 -6.11927 -6.20414
upperneck 10.2513 -8.21494 9.25596
head 6.37542 -3.50812 3.11185
rclavicle 8.15017e-015 -2.42517e-014
rhumerus 56.2807 11.7676 -50.7844
rradius 40.801
rwrist 31.6334
rhand 17.6618 -24.3693
rfingers 7.12502
rthumb 42.351 -768.841
lclavicle 8.15017e-015 -2.42517e-014
lhumerus 71.3238 -30.1181 43.4591
lradius 35.1719
lwrist 4.60514
lhand -6.76837 5.77497
lfingers 7.12502
lthumb 19.0936 34.8578
rfemur -24.6942 27.0273 13.659
rtibia 5.30589
rfoot -9.2166 -28.0504
rtoes 3.7959
lfemur -17.7226 -60.1025 9.76923
ltibia -5.11234
lfoot -71.0432 56.7012
ltoes 42.4711
1565
root 0.192976 17.626 7.91687 22.4302 -2.53147 -9.36711
lowerback 6.59265 2.28076 6.40405
upperback 1.43575 3.54925 3.69587
thorax -2.05496 1.73319 -0.051956
lowerneck -15.927 -6.18033 -6.34611
upperneck 10.2335 -8.28987 9.41416
head 6.38649 -3.53836 3.17716
rclavicle -2.0276e-014 8.15017e-014
rhumerus 56.5141 11.5298 -51.2624
rradius 40.0564
rwrist 31.1776
rhand 20.2048 -25.9415
rfingers 7.12502
rthumb 44.7258 -769.548
lclavicle -2.0276e-014 8.15017e-014
lhumerus 71.3848 -30.0664 43.9129
lradius 34.8504
lwrist 3.95257
lhand -7.23116 6.33751
lfingers 7.12502
lthumb 18.6485 35.4636
rfemur -24.7758 27.0616 13.6115
rtibia 5.30157
rfoot -9.25454 -28.0972
rtoes 3.95795
lfemur -17.8779 -60.0813 9.92822
ltibia -5.13672
lfoot -71.1219 56.658
ltoes 42.5519
